<svg xmlns="http://www.w3.org/2000/svg" width="1789" height="1352" style="cursor: move;"><g transform="translate(-1905.7067178094794,-1543.5675977063966) scale(3.2304269543151944)"><path class="link" marker-end="" d="M910.5,641C982,641 982,668 1053.5,668" style="stroke-width: 0.5; stroke-opacity: 1; stroke: rgb(80, 80, 80); fill: none;"></path><path class="link" marker-end="" d="M910.5,659C982,659 982,668 1053.5,668" style="stroke-width: 0.5; stroke-opacity: 1; stroke: rgb(80, 80, 80); fill: none;"></path><path class="link" marker-end="" d="M910.5,677C982,677 982,668 1053.5,668" style="stroke-width: 0.5; stroke-opacity: 1; stroke: rgb(80, 80, 80); fill: none;"></path><path class="link" marker-end="" d="M910.5,695C982,695 982,668 1053.5,668" style="stroke-width: 0.5; stroke-opacity: 1; stroke: rgb(80, 80, 80); fill: none;"></path><path class="link" marker-end="" d="M767.5,542C839,542 839,641 910.5,641" style="stroke-width: 0.5; stroke-opacity: 1; stroke: rgb(80, 80, 80); fill: none;"></path><path class="link" marker-end="" d="M767.5,542C839,542 839,659 910.5,659" style="stroke-width: 0.5; stroke-opacity: 1; stroke: rgb(80, 80, 80); fill: none;"></path><path class="link" marker-end="" d="M767.5,542C839,542 839,677 910.5,677" style="stroke-width: 0.5; stroke-opacity: 1; stroke: rgb(80, 80, 80); fill: none;"></path><path class="link" marker-end="" d="M767.5,542C839,542 839,695 910.5,695" style="stroke-width: 0.5; stroke-opacity: 1; stroke: rgb(80, 80, 80); fill: none;"></path><path class="link" marker-end="" d="M767.5,578C839,578 839,641 910.5,641" style="stroke-width: 0.5; stroke-opacity: 1; stroke: rgb(80, 80, 80); fill: none;"></path><path class="link" marker-end="" d="M767.5,578C839,578 839,659 910.5,659" style="stroke-width: 0.5; stroke-opacity: 1; stroke: rgb(80, 80, 80); fill: none;"></path><path class="link" marker-end="" d="M767.5,578C839,578 839,677 910.5,677" style="stroke-width: 0.5; stroke-opacity: 1; stroke: rgb(80, 80, 80); fill: none;"></path><path class="link" marker-end="" d="M767.5,578C839,578 839,695 910.5,695" style="stroke-width: 0.5; stroke-opacity: 1; stroke: rgb(80, 80, 80); fill: none;"></path><path class="link" marker-end="" d="M767.5,614C839,614 839,641 910.5,641" style="stroke-width: 0.5; stroke-opacity: 1; stroke: rgb(80, 80, 80); fill: none;"></path><path class="link" marker-end="" d="M767.5,614C839,614 839,659 910.5,659" style="stroke-width: 0.5; stroke-opacity: 1; stroke: rgb(80, 80, 80); fill: none;"></path><path class="link" marker-end="" d="M767.5,614C839,614 839,677 910.5,677" style="stroke-width: 0.5; stroke-opacity: 1; stroke: rgb(80, 80, 80); fill: none;"></path><path class="link" marker-end="" d="M767.5,614C839,614 839,695 910.5,695" style="stroke-width: 0.5; stroke-opacity: 1; stroke: rgb(80, 80, 80); fill: none;"></path><path class="link" marker-end="" d="M767.5,650C839,650 839,641 910.5,641" style="stroke-width: 0.5; stroke-opacity: 1; stroke: rgb(80, 80, 80); fill: none;"></path><path class="link" marker-end="" d="M767.5,650C839,650 839,659 910.5,659" style="stroke-width: 0.5; stroke-opacity: 1; stroke: rgb(80, 80, 80); fill: none;"></path><path class="link" marker-end="" d="M767.5,650C839,650 839,677 910.5,677" style="stroke-width: 0.5; stroke-opacity: 1; stroke: rgb(80, 80, 80); fill: none;"></path><path class="link" marker-end="" d="M767.5,650C839,650 839,695 910.5,695" style="stroke-width: 0.5; stroke-opacity: 1; stroke: rgb(80, 80, 80); fill: none;"></path><path class="link" marker-end="" d="M767.5,686C839,686 839,641 910.5,641" style="stroke-width: 0.5; stroke-opacity: 1; stroke: rgb(80, 80, 80); fill: none;"></path><path class="link" marker-end="" d="M767.5,686C839,686 839,659 910.5,659" style="stroke-width: 0.5; stroke-opacity: 1; stroke: rgb(80, 80, 80); fill: none;"></path><path class="link" marker-end="" d="M767.5,686C839,686 839,677 910.5,677" style="stroke-width: 0.5; stroke-opacity: 1; stroke: rgb(80, 80, 80); fill: none;"></path><path class="link" marker-end="" d="M767.5,686C839,686 839,695 910.5,695" style="stroke-width: 0.5; stroke-opacity: 1; stroke: rgb(80, 80, 80); fill: none;"></path><path class="link" marker-end="" d="M767.5,722C839,722 839,641 910.5,641" style="stroke-width: 0.5; stroke-opacity: 1; stroke: rgb(80, 80, 80); fill: none;"></path><path class="link" marker-end="" d="M767.5,722C839,722 839,659 910.5,659" style="stroke-width: 0.5; stroke-opacity: 1; stroke: rgb(80, 80, 80); fill: none;"></path><path class="link" marker-end="" d="M767.5,722C839,722 839,677 910.5,677" style="stroke-width: 0.5; stroke-opacity: 1; stroke: rgb(80, 80, 80); fill: none;"></path><path class="link" marker-end="" d="M767.5,722C839,722 839,695 910.5,695" style="stroke-width: 0.5; stroke-opacity: 1; stroke: rgb(80, 80, 80); fill: none;"></path><path class="link" marker-end="" d="M767.5,758C839,758 839,641 910.5,641" style="stroke-width: 0.5; stroke-opacity: 1; stroke: rgb(80, 80, 80); fill: none;"></path><path class="link" marker-end="" d="M767.5,758C839,758 839,659 910.5,659" style="stroke-width: 0.5; stroke-opacity: 1; stroke: rgb(80, 80, 80); fill: none;"></path><path class="link" marker-end="" d="M767.5,758C839,758 839,677 910.5,677" style="stroke-width: 0.5; stroke-opacity: 1; stroke: rgb(80, 80, 80); fill: none;"></path><path class="link" marker-end="" d="M767.5,758C839,758 839,695 910.5,695" style="stroke-width: 0.5; stroke-opacity: 1; stroke: rgb(80, 80, 80); fill: none;"></path><path class="link" marker-end="" d="M767.5,794C839,794 839,641 910.5,641" style="stroke-width: 0.5; stroke-opacity: 1; stroke: rgb(80, 80, 80); fill: none;"></path><path class="link" marker-end="" d="M767.5,794C839,794 839,659 910.5,659" style="stroke-width: 0.5; stroke-opacity: 1; stroke: rgb(80, 80, 80); fill: none;"></path><path class="link" marker-end="" d="M767.5,794C839,794 839,677 910.5,677" style="stroke-width: 0.5; stroke-opacity: 1; stroke: rgb(80, 80, 80); fill: none;"></path><path class="link" marker-end="" d="M767.5,794C839,794 839,695 910.5,695" style="stroke-width: 0.5; stroke-opacity: 1; stroke: rgb(80, 80, 80); fill: none;"></path><circle r="8" class="node" id="0_0" cx="767.5" cy="542" style="fill: rgb(255, 255, 255); stroke: rgb(51, 51, 51);"></circle><circle r="8" class="node" id="0_1" cx="767.5" cy="578" style="fill: rgb(255, 255, 255); stroke: rgb(51, 51, 51);"></circle><circle r="8" class="node" id="0_2" cx="767.5" cy="614" style="fill: rgb(255, 255, 255); stroke: rgb(51, 51, 51);"></circle><circle r="8" class="node" id="0_3" cx="767.5" cy="650" style="fill: rgb(255, 255, 255); stroke: rgb(51, 51, 51);"></circle><circle r="8" class="node" id="0_4" cx="767.5" cy="686" style="fill: rgb(255, 255, 255); stroke: rgb(51, 51, 51);"></circle><circle r="8" class="node" id="0_5" cx="767.5" cy="722" style="fill: rgb(255, 255, 255); stroke: rgb(51, 51, 51);"></circle><circle r="8" class="node" id="0_6" cx="767.5" cy="758" style="fill: rgb(255, 255, 255); stroke: rgb(51, 51, 51);"></circle><circle r="8" class="node" id="0_7" cx="767.5" cy="794" style="fill: rgb(255, 255, 255); stroke: rgb(51, 51, 51);"></circle><circle r="8" class="node" id="1_0" cx="910.5" cy="641" style="fill: rgb(255, 255, 255); stroke: rgb(51, 51, 51);"></circle><circle r="8" class="node" id="1_1" cx="910.5" cy="659" style="fill: rgb(255, 255, 255); stroke: rgb(51, 51, 51);"></circle><circle r="8" class="node" id="1_2" cx="910.5" cy="677" style="fill: rgb(255, 255, 255); stroke: rgb(51, 51, 51);"></circle><circle r="8" class="node" id="1_3" cx="910.5" cy="695" style="fill: rgb(255, 255, 255); stroke: rgb(51, 51, 51);"></circle><circle r="8" class="node" id="2_0" cx="1053.5" cy="668" style="fill: rgb(255, 255, 255); stroke: rgb(51, 51, 51);"></circle><text class="text" dy=".35em" x="732.5" y="830" style="font-size: 12px;">Input Layer ∈ ℝ⁸</text><text class="text" dy=".35em" x="875.5" y="830" style="font-size: 12px;">Hidden Layer ∈ ℝ⁴</text><text class="text" dy=".35em" x="1018.5" y="830" style="font-size: 12px;">Output Layer ∈ ℝ¹</text></g><defs><marker id="arrow" viewBox="0 -5 10 10" markerWidth="7" markerHeight="7" orient="auto" refX="34.4"><path d="M0,-5L10,0L0,5" style="stroke: rgb(80, 80, 80); fill: none;"></path></marker></defs></svg>